<?xml version="1.0" encoding="UTF-8"?>
<svg version="1.1" xmlns="http://www.w3.org/2000/svg" width="32" height="32">
<path d="M0 0 C7.4696771 1.54545043 7.4696771 1.54545043 9.828125 4.28125 C10.265625 6.46875 10.265625 6.46875 9.19140625 8.67578125 C6.73124968 12.24375681 3.92205771 15.25769688 0.890625 18.34375 C0.32601563 18.94960938 -0.23859375 19.55546875 -0.8203125 20.1796875 C-4.99936639 24.43613127 -4.99936639 24.43613127 -8.375 24.5859375 C-11.12018918 23.28606315 -12.94878329 21.85524589 -15.109375 19.71875 C-15.81835938 19.04328125 -16.52734375 18.3678125 -17.2578125 17.671875 C-18.734375 15.46875 -18.734375 15.46875 -18.73828125 13.03515625 C-15.62297695 5.07112932 -8.67324707 -0.98187703 0 0 Z M-7.421875 5.84375 C-8.9438207 7.37992258 -8.9438207 7.37992258 -8.734375 9.46875 C-5.57321724 8.09891497 -4.7416658 7.4796862 -2.734375 4.46875 C-5.70955073 4.15291352 -5.70955073 4.15291352 -7.421875 5.84375 Z " fill="#393434" transform="translate(18.734375,-0.46875)"/>
<path d="M0 0 C3 1 3 1 4.6875 3.625 C6.13626589 7.350398 6.31082163 10.03702426 6 14 C5 15 5 15 1.5625 15.1875 C-2 15 -2 15 -4 13 C-3.71202618 8.00845374 -2.43490415 4.34048131 0 0 Z " fill="#EBEBF5" transform="translate(26,17)"/>
<path d="M0 0 C0.66 0 1.32 0 2 0 C2.33 1.65 2.66 3.3 3 5 C1.68 5 0.36 5 -1 5 C-0.67 3.35 -0.34 1.7 0 0 Z " fill="#383434" transform="translate(28,11)"/>
</svg>
