<?xml version="1.0" standalone="no"?>
<!DOCTYPE svg PUBLIC "-//W3C//DTD SVG 20010904//EN"
 "http://www.w3.org/TR/2001/REC-SVG-20010904/DTD/svg10.dtd">
<svg version="1.0" xmlns="http://www.w3.org/2000/svg"
 width="32.000000pt" height="32.000000pt" viewBox="0 0 32.000000 32.000000"
 preserveAspectRatio="xMidYMid meet">

<g transform="translate(0.000000,32.000000) scale(0.100000,-0.100000)"
fill="#000000" stroke="none">
<path d="M135 303 c-31 -8 -64 -43 -70 -77 -7 -37 14 -100 49 -153 23 -34 24
-38 9 -44 -14 -5 -14 -7 5 -11 12 -4 20 -2 16 3 -3 5 4 9 16 9 12 0 19 -4 16
-9 -4 -5 4 -6 16 -3 18 5 19 7 6 10 -16 3 -15 8 8 44 37 58 56 118 49 154 -9
52 -67 89 -120 77z m80 -38 c34 -33 34 -83 0 -115 -77 -72 -185 41 -110 115
15 16 36 25 55 25 19 0 40 -9 55 -25z"/>
<path d="M133 270 c-29 -12 -46 -46 -39 -76 10 -38 25 -28 28 19 3 39 5 42 36
45 24 2 32 -1 32 -12 0 -9 5 -16 11 -16 6 0 9 -14 7 -32 -3 -31 -6 -33 -46
-36 -46 -3 -48 -22 -2 -22 31 0 70 39 70 70 0 42 -56 76 -97 60z"/>
<path d="M140 190 c0 -13 7 -20 20 -20 13 0 20 7 20 20 0 13 -7 20 -20 20 -13
0 -20 -7 -20 -20z"/>
</g>
</svg>
